<svg xmlns="http://www.w3.org/2000/svg" viewBox="0 0 800 450">
  <!-- A simple drawing of a search box above a grid of cards. Made for XR Camp (CC0). -->
  <rect width="800" height="450" fill="#fbf8f3"/>
  <rect x="120" y="50" width="560" height="56" rx="28" fill="#ffffff" stroke="#857a72" stroke-width="4"/>
  <circle cx="160" cy="78" r="12" fill="none" stroke="#0e5c61" stroke-width="5"/>
  <line x1="169" y1="87" x2="180" y2="98" stroke="#0e5c61" stroke-width="5" stroke-linecap="round"/>
  <rect x="200" y="70" width="200" height="16" rx="8" fill="#4f4944"/>
  <g fill="#ffffff" stroke="#857a72" stroke-width="4">
    <rect x="120" y="140" width="172" height="120" rx="12"/>
    <rect x="314" y="140" width="172" height="120" rx="12"/>
    <rect x="508" y="140" width="172" height="120" rx="12"/>
    <rect x="120" y="280" width="172" height="120" rx="12"/>
    <rect x="314" y="280" width="172" height="120" rx="12"/>
    <rect x="508" y="280" width="172" height="120" rx="12"/>
  </g>
  <g fill="#0e5c61">
    <rect x="120" y="140" width="172" height="10"/>
    <rect x="314" y="140" width="172" height="10"/>
    <rect x="508" y="140" width="172" height="10"/>
    <rect x="120" y="280" width="172" height="10"/>
    <rect x="314" y="280" width="172" height="10"/>
    <rect x="508" y="280" width="172" height="10"/>
  </g>
</svg>
